<svg width="62" height="62" viewBox="0 0 62 62" fill="none" xmlns="http://www.w3.org/2000/svg">
<g clip-path="url(#clip0_2_3363)">
<rect width="62" height="62" rx="8" fill="#4D9B91"/>
<g clip-path="url(#clip1_2_3363)">
<path d="M20.2085 19.4844L20.4045 18.3121C20.6794 17.1773 21.3276 16.1677 22.2451 15.4453C23.1625 14.723 24.2961 14.3298 25.4638 14.3289C26.3949 14.3289 27.2879 14.6988 27.9464 15.3572C28.6048 16.0156 28.9748 16.9087 28.9748 17.8399V43.5495C28.9748 45.7104 26.8025 47.6721 24.6426 47.6721C21.1633 47.6721 18.6309 45.3638 18.6309 41.7192C16.795 40.3125 15.5593 37.9443 16.1392 35.7052L16.4031 34.6927L16.274 34.5919C13.2658 32.2429 13.3961 28.494 16.5322 26.324" stroke="white" stroke-width="1.5" stroke-linecap="round" stroke-linejoin="round"/>
<path d="M24.3516 21.4971C22.6799 19.2093 20.084 18.7665 17.4485 20.5911C16.1177 21.6647 15.1527 23.7759 16.5322 26.3219C16.5322 26.3219 19.6174 24.7726 21.7104 28.1839" stroke="white" stroke-width="1.5" stroke-linecap="round" stroke-linejoin="round"/>
<path d="M18.6289 41.7194C18.6289 41.7194 19.0298 39.7532 21.9564 39.1733" stroke="white" stroke-width="1.5" stroke-linecap="round" stroke-linejoin="round"/>
<path d="M23.4354 40.7204C23.7616 40.8337 20.8871 39.6694 22.2111 37.1754" stroke="white" stroke-width="1.5" stroke-linecap="round" stroke-linejoin="round"/>
<path d="M28.9724 32.1524C28.9724 32.1524 26.7718 31.0051 24.8623 32.8784" stroke="white" stroke-width="1.5" stroke-linecap="round" stroke-linejoin="round"/>
<path d="M16.4033 34.6928C16.4033 34.6928 17.2652 32.6927 20.3164 33.4991" stroke="white" stroke-width="1.5" stroke-linecap="round" stroke-linejoin="round"/>
<path d="M41.8421 19.3552L41.5951 18.3121C41.3202 17.1773 40.672 16.1677 39.7546 15.4453C38.8371 14.723 37.7036 14.3298 36.5359 14.3289C35.6047 14.3289 34.7117 14.6988 34.0532 15.3572C33.3948 16.0156 33.0249 16.9087 33.0249 17.8399V43.5495C33.0248 44.0632 33.1258 44.572 33.3224 45.0467C33.5189 45.5214 33.8071 45.9527 34.1704 46.3159C34.5337 46.6792 34.965 46.9674 35.4397 47.1639C35.9143 47.3605 36.4231 47.4616 36.9368 47.4614C41.3256 47.4614 42.7878 45.4918 43.7901 42.5619C46.0462 41.2888 46.4415 38.787 45.8582 36.5478L45.5955 35.5365L45.7245 35.4345C46.424 34.8882 46.9853 34.1852 47.3631 33.3821C47.7409 32.579 47.9246 31.6983 47.8995 30.8112C47.8744 29.924 47.641 29.0552 47.2184 28.2748C46.7958 27.4943 46.1956 26.8242 45.4663 26.3184" stroke="white" stroke-width="1.5" stroke-linecap="round" stroke-linejoin="round"/>
<path d="M38.084 21.7881C39.7647 18.8434 42.3799 18.9431 44.551 20.5876C46.1842 21.8606 46.4764 24.8381 45.4684 26.3184C45.4684 26.3184 40.9562 25.4123 38.571 27.7681" stroke="white" stroke-width="1.5" stroke-linecap="round" stroke-linejoin="round"/>
<path d="M38.8058 29.7446C38.8058 29.7446 39.5227 27.228 36.7773 26.9777" stroke="white" stroke-width="1.5" stroke-linecap="round" stroke-linejoin="round"/>
<path d="M43.7922 42.5619C43.7922 42.5619 43.3913 40.5958 40.4658 40.0159" stroke="white" stroke-width="1.5" stroke-linecap="round" stroke-linejoin="round"/>
<path d="M38.9904 41.5631C38.6642 41.6763 41.5387 40.512 40.2147 38.0181" stroke="white" stroke-width="1.5" stroke-linecap="round" stroke-linejoin="round"/>
<path d="M45.5978 35.5366C44.4949 34.6505 43.0934 34.2226 41.6836 34.3417" stroke="white" stroke-width="1.5" stroke-linecap="round" stroke-linejoin="round"/>
<path d="M33.0273 35.5366C33.9332 35.5071 34.8271 35.7497 35.5938 36.2331" stroke="white" stroke-width="1.5" stroke-linecap="round" stroke-linejoin="round"/>
</g>
<path d="M33.3335 0C33.3335 4.46494 32.4541 8.88617 30.7454 13.0112C29.0367 17.1363 26.5323 20.8844 23.3751 24.0416C20.2179 27.1988 16.4698 29.7032 12.3447 31.4119C8.21966 33.1206 3.79844 34 -0.666504 34V0H33.3335Z" fill="white" fill-opacity="0.2"/>
</g>
<defs>
<clipPath id="clip0_2_3363">
<rect width="62" height="62" rx="8" fill="white"/>
</clipPath>
<clipPath id="clip1_2_3363">
<rect width="35.0534" height="34.5902" fill="white" transform="translate(13.4731 13.705)"/>
</clipPath>
</defs>
</svg>
