<svg width="62" height="62" viewBox="0 0 62 62" fill="none" xmlns="http://www.w3.org/2000/svg">
<g clip-path="url(#clip0_2_3318)">
<rect width="62" height="62" rx="8" fill="#DC9497"/>
<g clip-path="url(#clip1_2_3318)">
<path d="M37.646 14.2838C35.9107 14.2838 33.714 15.4771 30.9992 15.4771C28.2843 15.4771 26.0876 14.2838 24.3534 14.2838C21.3598 14.2838 16.7145 16.6426 17.7829 22.7691C18.5809 27.338 22.263 29.7494 22.263 33.3717C22.263 37.1529 20.982 37.3459 20.8416 41.9096C20.695 46.6405 22.8081 47.7141 23.5524 47.7141C24.2966 47.7141 26.3023 48.0186 27.2386 42.4247C28.308 36.0246 30.9992 36.3074 30.9992 36.3074C30.9992 36.3074 33.6914 36.0277 34.7608 42.4247C35.6971 48.0186 37.7038 47.7141 38.4471 47.7141C39.1903 47.7141 41.3044 46.6405 41.1578 41.9096C41.0164 37.3459 39.7364 37.1529 39.7364 33.3717C39.7364 29.7494 43.4185 27.338 44.2164 22.7691C45.2859 16.6426 40.6375 14.2838 37.646 14.2838Z" stroke="white" stroke-width="1.5" stroke-linecap="round" stroke-linejoin="round"/>
<path d="M25.0389 27.6074C24.8107 27.2255 24.5795 26.8559 24.3524 26.4946C23.4564 25.067 22.6832 23.8345 22.4262 22.3655C22.2032 21.0886 22.3591 20.1214 22.8897 19.4896" stroke="white" stroke-width="1.5" stroke-linecap="round" stroke-linejoin="round"/>
</g>
<path d="M34.3335 0C34.3335 4.46494 33.4541 8.88617 31.7454 13.0112C30.0367 17.1363 27.5323 20.8844 24.3751 24.0416C21.2179 27.1988 17.4698 29.7032 13.3447 31.4119C9.21966 33.1206 4.79844 34 0.333496 34V0H34.3335Z" fill="white" fill-opacity="0.2"/>
</g>
<defs>
<clipPath id="clip0_2_3318">
<rect width="62" height="62" rx="8" fill="white"/>
</clipPath>
<clipPath id="clip1_2_3318">
<rect width="27.858" height="34.5451" fill="white" transform="translate(17.0708 13.7274)"/>
</clipPath>
</defs>
</svg>
