<svg width="63" height="62" viewBox="0 0 63 62" fill="none" xmlns="http://www.w3.org/2000/svg">
<g clip-path="url(#clip0_2_3389)">
<rect x="0.666504" width="62" height="62" rx="8" fill="#DEB6B5"/>
<path d="M35.5622 24.1214V19.3362H27.7775V24.1214C25.2528 25.0375 23.1318 26.8141 21.7872 29.139C20.4426 31.4639 19.9604 34.1883 20.4254 36.8335C20.8905 39.4787 22.273 41.8753 24.33 43.6022C26.3869 45.3291 28.9868 46.2757 31.6725 46.2757C34.3582 46.2757 36.9581 45.3291 39.015 43.6022C41.072 41.8753 42.4545 39.4787 42.9195 36.8335C43.3846 34.1883 42.9024 31.4639 41.5578 29.139C40.2132 26.8141 38.0922 25.0375 35.5675 24.1214H35.5622Z" stroke="white" stroke-width="1.5" stroke-linecap="round" stroke-linejoin="round"/>
<path d="M42.6588 37.1125L40.8309 35.6349C40.3131 35.2164 39.6676 34.9882 39.0018 34.9882C38.3361 34.9882 37.6906 35.2164 37.1728 35.6349C36.6547 36.0529 36.009 36.2808 35.3433 36.2808C34.6775 36.2808 34.0319 36.0529 33.5137 35.6349C32.9959 35.2166 32.3503 34.9885 31.6847 34.9885C31.019 34.9885 30.3735 35.2166 29.8556 35.6349C29.3379 36.0529 28.6926 36.2809 28.0272 36.2809C27.3617 36.2809 26.7164 36.0529 26.1987 35.6349C25.6809 35.2169 25.0356 34.9889 24.3702 34.9889C23.7047 34.9889 23.0594 35.2169 22.5417 35.6349L20.7095 37.1125" stroke="white" stroke-width="1.5" stroke-linecap="round" stroke-linejoin="round"/>
<path d="M36.5804 15.7224H26.7524V19.3361H36.5804V15.7224Z" stroke="white" stroke-width="1.5" stroke-linecap="round" stroke-linejoin="round"/>
<path d="M34.6665 0C34.6665 4.46494 33.7871 8.88617 32.0784 13.0112C30.3697 17.1363 27.8653 20.8844 24.7081 24.0416C21.5509 27.1988 17.8028 29.7032 13.6777 31.4119C9.55267 33.1206 5.13145 34 0.666504 34V0H34.6665Z" fill="white" fill-opacity="0.2"/>
</g>
<defs>
<clipPath id="clip0_2_3389">
<rect x="0.666504" width="62" height="62" rx="8" fill="white"/>
</clipPath>
</defs>
</svg>
