<svg width="62" height="62" viewBox="0 0 62 62" fill="none" xmlns="http://www.w3.org/2000/svg">
<g clip-path="url(#clip0_2_3347)">
<rect width="62" height="62" rx="8" fill="#ACA1CD"/>
<path d="M34 0C34 4.46494 33.1206 8.88617 31.4119 13.0112C29.7032 17.1363 27.1988 20.8844 24.0416 24.0416C20.8844 27.1988 17.1363 29.7032 13.0112 31.4119C8.88617 33.1206 4.46494 34 0 34V0H34Z" fill="white" fill-opacity="0.2"/>
<g clip-path="url(#clip1_2_3347)">
<path d="M22.295 31.2443C19.8668 28.0042 17.7036 24.8966 17.7036 20.4996C17.7036 17.4892 20.2366 16.4362 21.8366 16.0712" stroke="white" stroke-width="1.5" stroke-linecap="round" stroke-linejoin="round"/>
<path d="M24.3676 15.8807C24.3676 16.5058 23.8073 17.0118 23.1145 17.0118C22.5094 17.0118 22.0043 16.624 21.8871 16.1084C21.8706 16.0336 21.8623 15.9573 21.8623 15.8807C21.8623 15.2555 22.4226 14.7495 23.1145 14.7495C23.8063 14.7495 24.3676 15.2555 24.3676 15.8807Z" stroke="white" stroke-width="1.5" stroke-linecap="round" stroke-linejoin="round"/>
<path d="M33.501 15.8807C33.501 16.5058 34.0613 17.0118 34.7532 17.0118C35.3593 17.0118 35.8643 16.624 35.9815 16.1084C35.998 16.0336 36.0063 15.9573 36.0063 15.8807C36.0063 15.2555 35.446 14.7495 34.7532 14.7495C34.0604 14.7495 33.501 15.2555 33.501 15.8807Z" stroke="white" stroke-width="1.5" stroke-linecap="round" stroke-linejoin="round"/>
<path d="M35.5737 31.2454C38.0009 28.0054 40.1651 24.8977 40.1651 20.4998C40.1651 17.5018 37.6531 16.4449 36.0521 16.0752" stroke="white" stroke-width="1.5" stroke-linecap="round" stroke-linejoin="round"/>
<path d="M17.7036 20.4996C17.7036 17.4892 20.2366 16.4362 21.8366 16.0712" stroke="white" stroke-width="1.5" stroke-linecap="round" stroke-linejoin="round"/>
<path d="M35.5939 31.2606C35.3198 31.0375 34.9684 30.9322 34.6168 30.9679C34.2652 31.0037 33.9421 31.1775 33.7185 31.4512C32.2701 33.2221 30.6694 34.8627 28.9346 36.3542C27.1997 34.8625 25.5987 33.2219 24.1498 31.4512C24.0429 31.3055 23.9075 31.1831 23.7518 31.0914C23.5962 30.9997 23.4235 30.9405 23.2443 30.9175C23.0651 30.8945 22.8831 30.9081 22.7093 30.9575C22.5355 31.007 22.3736 31.0912 22.2333 31.2051C22.0931 31.319 21.9774 31.4602 21.8934 31.6201C21.8093 31.7801 21.7586 31.9554 21.7444 32.1355C21.7301 32.3156 21.7526 32.4967 21.8105 32.6679C21.8683 32.8391 21.9603 32.9967 22.0809 33.1312C25.0217 36.7525 27.9998 39.0396 28.1255 39.1349L28.1417 39.1454C28.1921 39.1826 28.245 39.2163 28.2999 39.2464L28.3123 39.254C28.4321 39.3166 28.5606 39.3609 28.6935 39.3855L28.7326 39.3922C28.7975 39.4024 28.8632 39.4078 28.9289 39.4084H28.9337C28.9997 39.4078 29.0657 39.4024 29.1309 39.3922L29.17 39.3855C29.3029 39.3609 29.4314 39.3166 29.5512 39.254L29.5636 39.2464C29.6185 39.2163 29.6714 39.1826 29.7218 39.1454L29.738 39.1349C31.9619 37.3558 33.9884 35.343 35.7826 33.1312C36.0045 32.8577 36.1091 32.5075 36.0738 32.157C36.0384 31.8066 35.8659 31.4843 35.5939 31.2606Z" stroke="white" stroke-width="1.5" stroke-linecap="round" stroke-linejoin="round"/>
<path d="M41.0792 41.2447C41.0792 41.2447 40.3111 47.2484 35.1708 47.2484C30.4498 47.2484 29.1824 43.6958 28.9766 39.415" stroke="white" stroke-width="1.5" stroke-linecap="round" stroke-linejoin="round"/>
<path d="M44.2979 38.7575C44.2979 40.1145 43.1543 41.2143 41.7335 41.2143C40.3126 41.2143 39.1729 40.1184 39.1729 38.7575C39.1729 37.3967 40.3212 36.3008 41.7373 36.3008C43.1534 36.3008 44.2979 37.4005 44.2979 38.7575Z" stroke="white" stroke-width="1.5" stroke-linecap="round" stroke-linejoin="round"/>
<path d="M42.0699 38.7576C42.0728 38.8249 42.0554 38.8915 42.0201 38.9488C41.9847 39.0062 41.933 39.0516 41.8716 39.0793C41.8103 39.1071 41.742 39.1158 41.6756 39.1043C41.6092 39.0929 41.5478 39.0618 41.4992 39.0152C41.4506 38.9685 41.4171 38.9084 41.403 38.8425C41.3889 38.7767 41.3948 38.7081 41.42 38.6456C41.4452 38.5832 41.4886 38.5297 41.5444 38.4921C41.6003 38.4544 41.6661 38.4344 41.7335 38.4345C41.7768 38.4336 41.8199 38.4413 41.8602 38.457C41.9005 38.4728 41.9374 38.4964 41.9686 38.5264C41.9999 38.5564 42.0249 38.5922 42.0423 38.6319C42.0596 38.6716 42.069 38.7143 42.0699 38.7576Z" stroke="white" stroke-width="1.5" stroke-linecap="round" stroke-linejoin="round"/>
</g>
</g>
<defs>
<clipPath id="clip0_2_3347">
<rect width="62" height="62" rx="8" fill="white"/>
</clipPath>
<clipPath id="clip1_2_3347">
<rect width="27.6426" height="33.551" fill="white" transform="translate(17.1787 14.2245)"/>
</clipPath>
</defs>
</svg>
