<svg width="63" height="62" viewBox="0 0 63 62" fill="none" xmlns="http://www.w3.org/2000/svg">
<g clip-path="url(#clip0_2_3382)">
<rect x="0.333496" width="62" height="62" rx="8" fill="#352261"/>
<g clip-path="url(#clip1_2_3382)">
<path d="M20.9963 44.9615C20.2109 45.1854 19.3855 45.0705 18.8745 44.6403C18.0092 43.9113 17.1965 42.7755 16.7128 41.0829C16.049 38.7645 16.8754 34.1161 20.7559 33.0045C23.6758 32.1704 24.8671 34.1861 27.8035 33.3462C30.74 32.5062 32.3226 30.6054 31.7941 28.7658C30.8577 25.4946 25.4676 24.6352 22.9984 20.96C22.3472 19.9867 22.939 19.3054 24.3814 18.8878C25.3615 18.6075 26.3485 18.1549 27.0833 18.8187C27.8182 19.4825 28.627 20.2427 29.9312 21.0632C29.9312 21.0632 31.7804 18.0012 34.7149 17.1612C37.6494 16.3213 43.6498 17.46 45.8105 25.0157C47.9712 32.5714 39.5532 38.4394 34.5203 39.8799C25.9786 42.3229 24.5518 37.3328 22.2567 37.9898C20.4795 38.4978 21.1257 40.5836 22.503 42.1574C23.3098 43.0792 22.6305 44.4934 21.1403 44.9167L20.9963 44.9615Z" stroke="white" stroke-width="1.5" stroke-linecap="round" stroke-linejoin="round"/>
</g>
<path d="M34 0C34 4.46494 33.1206 8.88617 31.4119 13.0112C29.7032 17.1363 27.1988 20.8844 24.0416 24.0416C20.8844 27.1988 17.1363 29.7032 13.0112 31.4119C8.88617 33.1206 4.46494 34 0 34V0H34Z" fill="white" fill-opacity="0.2"/>
</g>
<defs>
<clipPath id="clip0_2_3382">
<rect x="0.333496" width="62" height="62" rx="8" fill="white"/>
</clipPath>
<clipPath id="clip1_2_3382">
<rect width="30.7796" height="29.27" fill="white" transform="translate(15.9438 16.365)"/>
</clipPath>
</defs>
</svg>
