<svg width="20" height="21" viewBox="0 0 20 21" fill="none" xmlns="http://www.w3.org/2000/svg">
<g clip-path="url(#clip0_203_381)">
<path d="M19.8052 10.7303C19.8052 10.0506 19.7501 9.36711 19.6325 8.69836H10.2002V12.5492H15.6016C15.3775 13.7911 14.6573 14.8898 13.6027 15.5879V18.0866H16.8252C18.7176 16.3449 19.8052 13.7728 19.8052 10.7303Z" fill="#4285F4"/>
<path d="M10.1999 20.5006C12.897 20.5006 15.1714 19.6151 16.8286 18.0865L13.6061 15.5879C12.7096 16.1979 11.5521 16.5433 10.2036 16.5433C7.59474 16.5433 5.38272 14.7832 4.58904 12.4169H1.26367V14.9927C2.96127 18.3695 6.41892 20.5006 10.1999 20.5006Z" fill="#34A853"/>
<path d="M4.58564 12.4169C4.16676 11.1749 4.16676 9.83008 4.58564 8.58811V6.01233H1.26395C-0.154389 8.83798 -0.154389 12.167 1.26395 14.9927L4.58564 12.4169Z" fill="#FBBC04"/>
<path d="M10.1999 4.45805C11.6256 4.436 13.0035 4.97247 14.036 5.95722L16.8911 3.10218C15.0833 1.40459 12.6838 0.471278 10.1999 0.500674C6.41892 0.500674 2.96126 2.63185 1.26367 6.01234L4.58537 8.58813C5.37537 6.21811 7.59106 4.45805 10.1999 4.45805Z" fill="#EA4335"/>
</g>
<defs>
<clipPath id="clip0_203_381">
<rect width="20" height="20" fill="white" transform="translate(0 0.5)"/>
</clipPath>
</defs>
</svg>
