<svg width="66" height="67" viewBox="0 0 66 67" fill="none" xmlns="http://www.w3.org/2000/svg">
<path d="M38.8207 53.2392V59.7363H26.7522V27.6923H32.058V20.9286H20.0174V39.7277H6.75471V27.6923H13.2626V20.9286H6.26911C4.60708 20.9307 3.01373 21.5916 1.8385 22.7663C0.663269 23.941 0.0021065 25.5337 0 27.195V40.2409C0.0021065 41.9022 0.663269 43.4949 1.8385 44.6696C3.01373 45.8443 4.60708 46.5052 6.26911 46.5073H20.0174V60.2456C20.0226 61.9041 20.6846 63.4931 21.8587 64.6651C23.0327 65.8372 24.6232 66.4969 26.2825 66.5H39.3023C40.9643 66.4979 42.5577 65.837 43.7329 64.6623C44.9081 63.4876 45.5693 61.895 45.5714 60.2337V53.2392H38.8207Z" fill="white"/>
<path d="M59.7305 20.4997H45.985V6.76856C45.9829 5.10668 45.3217 3.51347 44.1463 2.33834C42.971 1.16322 41.3775 0.502106 39.7154 0.5H26.6944C25.0329 0.503159 23.4404 1.16473 22.266 2.33975C21.0915 3.51476 20.4308 5.10737 20.4287 6.76856V13.7575H27.1641V7.2382H39.2218V39.3054H33.9314V46.0714H45.985V27.2498H59.2488V39.3054H52.7363V46.0714H59.7305C61.3927 46.0693 62.9861 45.4082 64.1615 44.2331C65.3368 43.058 65.998 41.4647 66.0001 39.8029V26.7682C65.998 25.1064 65.3368 23.5132 64.1615 22.338C62.9861 21.1629 61.3927 20.5018 59.7305 20.4997Z" fill="white"/>
</svg>
